<?xml version="1.0" standalone="no"?>
<!DOCTYPE svg PUBLIC "-//W3C//DTD SVG 20010904//EN"
 "http://www.w3.org/TR/2001/REC-SVG-20010904/DTD/svg10.dtd">
<svg version="1.0" xmlns="http://www.w3.org/2000/svg"
 width="960.000000pt" height="960.000000pt" viewBox="0 0 960.000000 960.000000"
 preserveAspectRatio="xMidYMid meet">
<metadata>
Created by potrace 1.11, written by Peter Selinger 2001-2013
</metadata>
<g transform="translate(0.000000,960.000000) scale(0.100000,-0.100000)"
fill="#000000" stroke="none">
<path d="M4635 8300 c-764 -81 -1417 -713 -1641 -1589 -64 -250 -78 -363 -78
-661 -1 -170 4 -299 12 -360 20 -141 60 -323 94 -428 l29 -93 -110 -106 c-176
-167 -265 -318 -297 -507 -65 -374 199 -748 709 -1006 107 -54 108 -55 103
-85 -19 -91 -116 -246 -220 -351 -196 -197 -467 -304 -766 -304 -304 0 -582
126 -752 339 -78 97 -121 186 -158 323 -35 127 -66 190 -127 258 -148 165
-353 128 -435 -79 -19 -47 -22 -75 -22 -176 0 -108 3 -130 33 -225 72 -231
183 -413 351 -580 278 -277 640 -431 1050 -447 315 -12 586 49 860 194 150 79
249 152 380 283 163 162 276 335 349 535 16 44 33 80 37 80 25 0 170 -29 177
-35 23 -21 -120 -310 -221 -445 -564 -759 -1725 -1085 -2415 -677 -106 62
-226 176 -297 282 -98 144 -184 216 -295 245 -226 59 -367 -158 -280 -432 39
-124 125 -245 283 -395 121 -114 238 -195 397 -273 194 -94 363 -146 595 -182
172 -26 499 -23 689 6 770 118 1470 553 1877 1167 75 114 181 325 219 436 16
49 32 88 35 88 3 0 19 -39 35 -88 38 -111 144 -322 219 -436 407 -614 1107
-1049 1877 -1167 190 -29 517 -32 689 -6 232 36 401 88 595 182 159 78 276
159 397 273 218 208 308 369 308 552 0 161 -74 263 -205 284 -48 8 -143 -15
-194 -46 -63 -39 -142 -121 -201 -208 -32 -47 -93 -119 -137 -160 -477 -448
-1436 -385 -2155 140 -128 93 -333 296 -421 415 -97 131 -242 423 -222 444 10
10 179 40 186 33 4 -4 12 -25 19 -47 104 -337 401 -675 750 -854 280 -143 537
-200 850 -188 670 26 1222 435 1406 1042 23 76 27 108 28 210 0 100 -4 129
-22 176 -82 207 -287 244 -435 79 -60 -66 -93 -133 -123 -246 -93 -352 -339
-578 -714 -656 -125 -26 -354 -21 -473 11 -309 82 -558 278 -678 534 -16 34
-31 76 -35 92 -5 30 -4 31 99 83 134 68 291 171 389 256 241 208 365 486 328
732 -30 195 -122 358 -300 527 l-111 105 35 114 c68 226 95 404 103 678 6 209
-3 357 -32 527 -104 609 -414 1146 -850 1472 -353 264 -764 384 -1170 341z
m-1310 -3594 c148 -69 208 -255 128 -398 -76 -136 -249 -185 -385 -111 -60 33
-93 70 -126 142 -21 45 -24 64 -20 125 8 113 67 200 168 245 65 30 169 28 235
-3z m3185 3 c221 -99 227 -409 9 -519 -128 -66 -299 -11 -372 118 -80 143 -20
329 128 398 66 31 170 33 235 3z"/>
</g>
</svg>
