<svg version="1.1" viewBox="0.0 0.0 960.010498687664 740.9238845144357" fill="none" stroke="none" stroke-linecap="square" stroke-miterlimit="10" xmlns:xlink="http://www.w3.org/1999/xlink" xmlns="http://www.w3.org/2000/svg"><clipPath id="p.0"><path d="m0 0l960.0105 0l0 740.9239l-960.0105 0l0 -740.9239z" clip-rule="nonzero"/></clipPath><g clip-path="url(#p.0)"><path fill="#000000" fill-opacity="0.0" d="m0 0l960.0105 0l0 740.9239l-960.0105 0z" fill-rule="evenodd"/><path fill="#000000" d="m291.24408 246.2441l0 0c0 -125.12946 84.50891 -226.56693 188.75592 -226.56693l0 0c50.061157 0 98.07196 23.870377 133.47058 66.35991c35.39862 42.489548 55.28534 100.11774 55.28534 160.20702l0 0c0 125.12947 -84.50891 226.56694 -188.75592 226.56694l0 0c-104.24701 0 -188.75592 -101.43747 -188.75592 -226.56694z" fill-rule="evenodd"/><path stroke="#000000" stroke-width="1.0" stroke-linejoin="round" stroke-linecap="butt" d="m291.24408 246.2441l0 0c0 -125.12946 84.50891 -226.56693 188.75592 -226.56693l0 0c50.061157 0 98.07196 23.870377 133.47058 66.35991c35.39862 42.489548 55.28534 100.11774 55.28534 160.20702l0 0c0 125.12947 -84.50891 226.56694 -188.75592 226.56694l0 0c-104.24701 0 -188.75592 -101.43747 -188.75592 -226.56694z" fill-rule="evenodd"/><path fill="#000000" d="m263.82678 405.19684l0 0c0 -66.38724 96.78403 -120.20471 216.17322 -120.20471l0 0c119.38916 0 216.17322 53.817474 216.17322 120.20471l0 0c0 66.38724 -96.78406 120.20471 -216.17322 120.20471l0 0c-119.38919 0 -216.17322 -53.817474 -216.17322 -120.20471z" fill-rule="evenodd"/><path stroke="#000000" stroke-width="1.0" stroke-linejoin="round" stroke-linecap="butt" d="m263.82678 405.19684l0 0c0 -66.38724 96.78403 -120.20471 216.17322 -120.20471l0 0c119.38916 0 216.17322 53.817474 216.17322 120.20471l0 0c0 66.38724 -96.78406 120.20471 -216.17322 120.20471l0 0c-119.38919 0 -216.17322 -53.817474 -216.17322 -120.20471z" fill-rule="evenodd"/><path fill="#ffffff" d="m610.3307 405.19684l0 0c0 -16.133667 13.078918 -29.212585 29.212646 -29.212585l0 0c7.7476196 0 15.1779785 3.0777588 20.656372 8.556183c5.4784546 5.478424 8.556213 12.908752 8.556213 20.656403l0 0c0 16.133698 -13.078918 29.212616 -29.212585 29.212616l0 0c-16.133728 0 -29.212646 -13.078918 -29.212646 -29.212616z" fill-rule="evenodd"/><path stroke="#000000" stroke-width="1.0" stroke-linejoin="round" stroke-linecap="butt" d="m610.3307 405.19684l0 0c0 -16.133667 13.078918 -29.212585 29.212646 -29.212585l0 0c7.7476196 0 15.1779785 3.0777588 20.656372 8.556183c5.4784546 5.478424 8.556213 12.908752 8.556213 20.656403l0 0c0 16.133698 -13.078918 29.212616 -29.212585 29.212616l0 0c-16.133728 0 -29.212646 -13.078918 -29.212646 -29.212616z" fill-rule="evenodd"/><path fill="#ffffff" d="m291.24408 405.19684l0 0c0 -16.133667 13.078949 -29.212585 29.212616 -29.212585l0 0c7.74765 0 15.178009 3.0777588 20.656433 8.556183c5.478424 5.478424 8.556152 12.908752 8.556152 20.656403l0 0c0 16.133698 -13.078918 29.212616 -29.212585 29.212616l0 0c-16.133667 0 -29.212616 -13.078918 -29.212616 -29.212616z" fill-rule="evenodd"/><path stroke="#000000" stroke-width="1.0" stroke-linejoin="round" stroke-linecap="butt" d="m291.24408 405.19684l0 0c0 -16.133667 13.078949 -29.212585 29.212616 -29.212585l0 0c7.74765 0 15.178009 3.0777588 20.656433 8.556183c5.478424 5.478424 8.556152 12.908752 8.556152 20.656403l0 0c0 16.133698 -13.078918 29.212616 -29.212585 29.212616l0 0c-16.133667 0 -29.212616 -13.078918 -29.212616 -29.212616z" fill-rule="evenodd"/><path fill="#000000" d="m406.17328 458.16165l0 0c12.609467 77.36264 -44.26651 151.46542 -127.97174 166.73227c-83.7052 15.266846 -163.49155 -33.9104 -179.52037 -110.649414l56.770615 -11.462158l0 0c9.797043 45.80017 59.720703 74.73749 112.372284 65.13452c52.65161 -9.602966 88.7215 -54.224365 81.18912 -100.43759z" fill-rule="evenodd"/><path stroke="#000000" stroke-width="1.0" stroke-linejoin="round" stroke-linecap="butt" d="m406.17328 458.16165l0 0c12.609467 77.36264 -44.26651 151.46542 -127.97174 166.73227c-83.7052 15.266846 -163.49155 -33.9104 -179.52037 -110.649414l56.770615 -11.462158l0 0c9.797043 45.80017 59.720703 74.73749 112.372284 65.13452c52.65161 -9.602966 88.7215 -54.224365 81.18912 -100.43759z" fill-rule="evenodd"/><path fill="#000000" d="m98.115486 514.2318l0 0c-4.6705017 -22.987244 4.488266 -44.251953 20.456688 -47.496063l0 0c7.668312 -1.5578918 15.913513 1.3331909 22.921768 8.037262c7.0082397 6.7040405 12.20546 16.671906 14.4483185 27.710754l0 0c4.6705017 22.987244 -4.4882812 44.251953 -20.456696 47.496094l0 0c-15.968422 3.2440796 -32.699577 -12.760864 -37.37008 -35.748047z" fill-rule="evenodd"/><path fill="#000000" d="m553.8268 458.16165l0 0c-12.609436 77.36264 44.26654 151.46542 127.97174 166.73227c83.7052 15.266846 163.49158 -33.9104 179.52039 -110.649414l-56.77063 -11.462158l0 0c-9.797058 45.80017 -59.720703 74.73749 -112.37225 65.13452c-52.65161 -9.602966 -88.7215 -54.224365 -81.18915 -100.43759z" fill-rule="evenodd"/><path stroke="#000000" stroke-width="1.0" stroke-linejoin="round" stroke-linecap="butt" d="m553.8268 458.16165l0 0c-12.609436 77.36264 44.26654 151.46542 127.97174 166.73227c83.7052 15.266846 163.49158 -33.9104 179.52039 -110.649414l-56.77063 -11.462158l0 0c-9.797058 45.80017 -59.720703 74.73749 -112.37225 65.13452c-52.65161 -9.602966 -88.7215 -54.224365 -81.18915 -100.43759z" fill-rule="evenodd"/><path fill="#000000" d="m861.8846 514.2318l0 0c4.670532 -22.987244 -4.4882812 -44.251953 -20.456665 -47.496063l0 0c-7.668335 -1.5578918 -15.913513 1.3331909 -22.921753 8.037262c-7.008301 6.7040405 -12.205505 16.671906 -14.448364 27.710754l0 0c-4.670471 22.987244 4.4882812 44.251953 20.456726 47.496094l0 0c15.968384 3.2440796 32.699585 -12.760864 37.370056 -35.748047z" fill-rule="evenodd"/><path fill="#000000" d="m459.39606 407.56308l0 0c38.1333 51.939697 35.72046 123.305084 -6.295685 186.20932c-42.016113 62.904236 -116.96591 107.36194 -195.56186 116.00073c-78.59599 8.638794 -148.36183 -19.912659 -182.03577 -74.4975l51.91712 -29.064026l0 0c23.054855 35.755615 72.84691 52.66272 129.84279 44.088684c56.99588 -8.574036 112.105255 -41.26172 143.70874 -85.239624c31.603516 -43.977966 34.660706 -92.23212 7.9721985 -125.83243z" fill-rule="evenodd"/><path stroke="#000000" stroke-width="1.0" stroke-linejoin="round" stroke-linecap="butt" d="m459.39606 407.56308l0 0c38.1333 51.939697 35.72046 123.305084 -6.295685 186.20932c-42.016113 62.904236 -116.96591 107.36194 -195.56186 116.00073c-78.59599 8.638794 -148.36183 -19.912659 -182.03577 -74.4975l51.91712 -29.064026l0 0c23.054855 35.755615 72.84691 52.66272 129.84279 44.088684c56.99588 -8.574036 112.105255 -41.26172 143.70874 -85.239624c31.603516 -43.977966 34.660706 -92.23212 7.9721985 -125.83243z" fill-rule="evenodd"/><path fill="#000000" d="m74.81646 635.1221l0 0c-11.588665 -20.845886 -9.052986 -44.191223 5.6635895 -52.14325l0 0c7.067154 -3.8187256 16.055565 -3.5043335 24.9879 0.8739624c8.932327 4.378296 17.076881 12.461853 22.64196 22.472412l0 0c11.588654 20.845886 9.0529785 44.191162 -5.6636047 52.14325l0 0c-14.716576 7.9520264 -36.041183 -2.5004883 -47.629845 -23.346375z" fill-rule="evenodd"/><path fill="#000000" d="m500.62885 407.56192l0 0c-38.131348 51.937683 -35.717316 123.30124 6.298828 186.2045c42.016113 62.90326 116.96466 107.36102 195.55865 116.00079c78.59393 8.639832 148.35736 -19.909729 182.0293 -74.492676l-51.914856 -29.063232c-23.05365 35.75421 -72.84436 52.659912 -129.83936 44.0849c-56.994995 -8.574951 -112.104004 -41.263 -143.70782 -85.24054c-31.60376 -43.977478 -34.661804 -92.23053 -7.9744873 -125.82941z" fill-rule="evenodd"/><path stroke="#000000" stroke-width="1.0" stroke-linejoin="round" stroke-linecap="butt" d="m500.62885 407.56192l0 0c-38.131348 51.937683 -35.717316 123.30124 6.298828 186.2045c42.016113 62.90326 116.96466 107.36102 195.55865 116.00079c78.59393 8.639832 148.35736 -19.909729 182.0293 -74.492676l-51.914856 -29.063232c-23.05365 35.75421 -72.84436 52.659912 -129.83936 44.0849c-56.994995 -8.574951 -112.104004 -41.263 -143.70782 -85.24054c-31.60376 -43.977478 -34.661804 -92.23053 -7.9744873 -125.82941z" fill-rule="evenodd"/><path fill="#000000" d="m885.22125 635.1188l0 0c11.5849 -20.847717 9.046692 -44.19232 -5.6693115 -52.141785l0 0c-7.0668945 -3.8174438 -16.054321 -3.5015259 -24.985168 0.8782959c-8.930847 4.3797607 -17.073608 12.464661 -22.636902 22.476074l0 0c-11.5849 20.847656 -9.046692 44.19232 5.6693115 52.141724l0 0c14.716003 7.949402 36.03711 -2.5066528 47.62207 -23.35431z" fill-rule="evenodd"/></g></svg>